<?xml version="1.0"?>
<svg xmlns="http://www.w3.org/2000/svg" xmlns:xlink="http://www.w3.org/1999/xlink" version="1.1" id="Layer_1" x="0px" y="0px" viewBox="0 0 512 512" style="enable-background:new 0 0 512 512;" xml:space="preserve" width="512px" height="512px"><g><g>
	<g>
		<path d="M501.333,192h-87.47L314.375,47.292c-3.336-4.854-9.977-6.085-14.831-2.749L281.96,56.628    c-4.855,3.337-6.086,9.978-2.749,14.833L362.082,192H149.918l82.871-120.539c3.337-4.855,2.107-11.496-2.749-14.833    l-17.585-12.085c-4.854-3.336-11.495-2.105-14.831,2.749L98.137,192h-87.47C4.776,192,0,196.775,0,202.667V224    c0,5.891,4.776,10.667,10.667,10.667h13.533l65.207,204.938c5.667,17.781,22,29.729,40.656,29.729h251.875    c18.656,0,34.99-11.948,40.656-29.74l65.206-204.927h13.534c5.891,0,10.667-4.776,10.667-10.667v-21.333    C512,196.775,507.224,192,501.333,192z" data-original="#000000" class="active-path" data-old_color="#000000" fill="#535353"/>
	</g>
</g></g> </svg>
